<svg id="Capa_1" enable-background="new 0 0 512 512" height="512" viewBox="0 0 512 512" width="512" xmlns="http://www.w3.org/2000/svg"><g><path d="m472.5 49.7h-184.15v-34.2c0-8.547-6.953-15.5-15.5-15.5h-33.7c-8.547 0-15.5 6.953-15.5 15.5v34.2h-112.794c-4.142 0-7.5 3.358-7.5 7.5s3.358 7.5 7.5 7.5h361.644c13.509 0 24.5 10.991 24.5 24.5v283.9c0 13.509-10.991 24.5-24.5 24.5h-433c-13.509 0-24.5-10.991-24.5-24.5v-283.9c0-13.509 10.991-24.5 24.5-24.5h41.356c4.142 0 7.5-3.358 7.5-7.5s-3.358-7.5-7.5-7.5h-41.356c-21.78 0-39.5 17.72-39.5 39.5v283.9c0 21.78 17.72 39.5 39.5 39.5h56.994l-26.209 78.625c-1.6 4.8-.789 10.116 2.17 14.22 2.958 4.104 7.745 6.555 12.804 6.555h32.237c6.804 0 12.821-4.337 14.973-10.793l29.536-88.607h53.361v18.133h-17.633c-8.547 0-15.5 6.953-15.5 15.5v17.133c0 8.547 6.953 15.5 15.5 15.5h25.133c4.142 0 7.5-3.358 7.5-7.5s-3.358-7.5-7.5-7.5h-25.133c-.276 0-.5-.224-.5-.5v-17.133c0-.276.224-.5.5-.5h116.533c.276 0 .5.224.5.5v17.133c0 .276-.224.5-.5.5h-61.4c-4.142 0-7.5 3.358-7.5 7.5s3.358 7.5 7.5 7.5h61.4c8.547 0 15.5-6.953 15.5-15.5v-17.133c0-8.547-6.953-15.5-15.5-15.5h-17.633v-18.133h53.361l29.536 88.607c2.152 6.456 8.169 10.793 14.973 10.793h32.237c5.06 0 9.846-2.451 12.804-6.555s3.769-9.42 2.169-14.219l-26.207-78.626h56.994c21.78 0 39.5-17.72 39.5-39.5v-283.9c0-21.78-17.72-39.5-39.5-39.5zm-233.85 0v-34.2c0-.276.224-.5.5-.5h33.7c.276 0 .5.224.5.5v34.2zm-120.411 446.764c-.107.32-.405.536-.743.536h-32.237c-.099 0-.401 0-.636-.326-.234-.325-.139-.611-.107-.706l16.745-50.235h33.889zm21.911-65.731h-33.889l6.045-18.133h33.889zm141.483 0h-51.267v-18.133h51.267zm145.743 65.941c-.234.326-.536.326-.635.326h-32.237c-.337 0-.636-.215-.743-.536l-16.91-50.731h33.888l16.745 50.236c.032.094.127.38-.108.705zm-21.637-65.941h-33.889l-6.044-18.133h33.889z"/><path d="m33.133 98.334v265.633c0 8.547 6.953 15.5 15.5 15.5h414.733c8.547 0 15.5-6.953 15.5-15.5v-265.633c0-8.547-6.953-15.5-15.5-15.5h-414.733c-8.547 0-15.5 6.953-15.5 15.5zm430.734 0v265.633c0 .276-.224.5-.5.5h-414.734c-.276 0-.5-.224-.5-.5v-265.633c0-.276.224-.5.5-.5h414.733c.277 0 .501.224.501.5z"/><path d="m107.319 287.859c.879.335 1.781.493 2.668.493 3.023 0 5.871-1.84 7.01-4.833l7.456-19.577h49.617l7.38 19.555c1.462 3.875 5.787 5.832 9.665 4.369 3.876-1.463 5.832-5.79 4.369-9.665l-36.985-98.004c-.026-.069-.053-.137-.081-.205-1.51-3.672-5.05-6.043-9.02-6.043-.003 0-.006 0-.009 0-3.973.003-7.513 2.382-9.018 6.059-.023.057-.045.114-.067.171l-37.324 98c-1.474 3.873.468 8.206 4.339 9.68zm42.056-89.353 19.034 50.437h-38.243z"/><path d="m224.398 288.35h.033c.266-.001 26.655-.118 33.882-.118 18.889 0 34.255-15.367 34.255-34.255 0-12.473-6.703-23.406-16.693-29.397 4.825-5.379 7.767-12.48 7.767-20.258 0-16.747-13.625-30.372-30.372-30.372h-28.873c-4.142 0-7.5 3.358-7.5 7.5v45.771.074 53.555c0 1.995.795 3.908 2.208 5.315 1.408 1.4 3.31 2.185 5.293 2.185zm33.916-15.118c-4.797 0-17.96.051-26.416.086v-38.555c3.279-.013 7.212-.029 10.89-.042h15.526c10.618 0 19.255 8.638 19.255 19.255 0 10.618-8.637 19.256-19.255 19.256zm-5.043-84.282c8.476 0 15.372 6.896 15.372 15.372 0 8.477-6.896 15.373-15.372 15.373-2.124 0-6.128.011-10.49.027h-10.883v-30.772z"/><path d="m370.701 288.35c12.464 0 23.621-4.069 32.265-11.768 1.695-1.509 3.308-3.173 4.793-4.943 2.662-3.174 2.247-7.904-.927-10.566s-7.904-2.246-10.566.927c-1.019 1.215-2.121 2.353-3.275 3.38-5.938 5.288-13.437 7.969-22.289 7.969-23.269 0-42.2-18.931-42.2-42.2s18.931-42.2 42.2-42.2c8.457 0 16.615 2.491 23.589 7.203 3.433 2.318 8.095 1.417 10.414-2.016s1.416-8.095-2.016-10.414c-9.464-6.393-20.524-9.773-31.986-9.773-31.54 0-57.2 25.66-57.2 57.2-.003 31.541 25.657 57.201 57.198 57.201z"/></g></svg>